<svg width="70" height="70" viewBox="0 0 70 70" fill="none" xmlns="http://www.w3.org/2000/svg">
<path d="M43.75 26.25V30.625H30.625C28.3044 30.625 26.0788 31.5469 24.4378 33.1878C22.7969 34.8288 21.875 37.0544 21.875 39.375V48.125C21.875 50.4456 22.7969 52.6712 24.4378 54.3122C26.0788 55.9531 28.3044 56.875 30.625 56.875H52.5C54.8206 56.875 57.0462 55.9531 58.6872 54.3122C60.3281 52.6712 61.25 50.4456 61.25 48.125V39.375C61.25 37.8391 60.8456 36.3303 60.0777 35.0001C59.3097 33.67 58.2051 32.5655 56.875 31.7975V26.9938C61.9719 28.7963 65.625 33.6569 65.625 39.3706V48.1206C65.625 51.6016 64.2422 54.94 61.7808 57.4014C59.3194 59.8628 55.981 61.2456 52.5 61.2456H30.625C27.144 61.2456 23.8056 59.8628 21.3442 57.4014C18.8828 54.94 17.5 51.6016 17.5 48.1206V39.375C17.5 35.894 18.8828 32.5556 21.3442 30.0942C23.8056 27.6328 27.144 26.25 30.625 26.25H43.75Z" fill="#465EFF"/>
<path d="M26.25 43.75V39.375H39.375C41.6956 39.375 43.9212 38.4531 45.5622 36.8122C47.2031 35.1712 48.125 32.9456 48.125 30.625V21.875C48.125 19.5544 47.2031 17.3288 45.5622 15.6878C43.9212 14.0469 41.6956 13.125 39.375 13.125H17.5C15.1794 13.125 12.9538 14.0469 11.3128 15.6878C9.67187 17.3288 8.75 19.5544 8.75 21.875V30.625C8.75004 32.1609 9.15436 33.6697 9.92233 34.9999C10.6903 36.33 11.7949 37.4345 13.125 38.2025V43.0062C10.5653 42.1006 8.3493 40.4236 6.78225 38.2063C5.2152 35.9889 4.37418 33.3402 4.375 30.625V21.875C4.375 18.394 5.75781 15.0556 8.21922 12.5942C10.6806 10.1328 14.019 8.75 17.5 8.75H39.375C42.856 8.75 46.1944 10.1328 48.6558 12.5942C51.1172 15.0556 52.5 18.394 52.5 21.875V30.625C52.5 34.106 51.1172 37.4444 48.6558 39.9058C46.1944 42.3672 42.856 43.75 39.375 43.75H26.25Z" fill="#465EFF"/>
</svg>
