<svg width="70" height="70" viewBox="0 0 70 70" fill="none" xmlns="http://www.w3.org/2000/svg">
<path d="M8.02075 5.83334C8.02075 5.25318 7.79028 4.69678 7.38005 4.28655C6.96981 3.87631 6.41341 3.64584 5.83325 3.64584C5.25309 3.64584 4.69669 3.87631 4.28646 4.28655C3.87622 4.69678 3.64575 5.25318 3.64575 5.83334V35.1663C3.64575 41.9008 3.64575 47.1771 4.19992 51.2954C4.76575 55.5071 5.94992 58.8321 8.55742 61.4425C11.1678 64.0529 14.4928 65.2342 18.7074 65.8C22.8228 66.3542 28.0991 66.3542 34.8337 66.3542H64.1666C64.7467 66.3542 65.3031 66.1237 65.7134 65.7135C66.1236 65.3032 66.3541 64.7468 66.3541 64.1667C66.3541 63.5865 66.1236 63.0301 65.7134 62.6199C65.3031 62.2096 64.7467 61.9792 64.1666 61.9792H34.9999C28.0641 61.9792 23.0824 61.9733 19.2908 61.4658C15.5603 60.9642 13.3116 60.0075 11.6491 58.3479C9.9895 56.6854 9.03575 54.4396 8.53409 50.7092C8.02659 46.9175 8.02075 41.9358 8.02075 35V5.83334Z" fill="#465EFF"/>
<path d="M57.1316 21.7758C57.3163 21.5515 57.4545 21.2925 57.5381 21.0142C57.6216 20.7358 57.6489 20.4436 57.6182 20.1546C57.5875 19.8656 57.4996 19.5856 57.3595 19.3309C57.2194 19.0763 57.03 18.8521 56.8023 18.6715C56.5746 18.4909 56.3132 18.3575 56.0334 18.279C55.7535 18.2006 55.4608 18.1787 55.1724 18.2146C54.884 18.2506 54.6057 18.3436 54.3537 18.4883C54.1016 18.633 53.8809 18.8265 53.7045 19.0575L44.6104 30.5083C43.8958 31.4096 43.4262 31.9958 43.0383 32.4217C42.6591 32.8387 42.4841 32.9554 42.4024 32.9992C42.0992 33.1608 41.7621 33.2487 41.4186 33.2558C41.075 33.2629 40.7346 33.189 40.4249 33.04C40.3433 33.0021 40.1624 32.8942 39.7629 32.4946C39.3604 32.0862 38.8645 31.5175 38.112 30.6483L38.0624 30.5958C37.3712 29.7967 36.7791 29.1142 36.2541 28.5892C35.7192 28.0139 35.0874 27.5371 34.3874 27.1804C33.4576 26.7338 32.4356 26.5127 31.4044 26.535C30.3731 26.5573 29.3617 26.8224 28.452 27.3087C27.7667 27.6947 27.1546 28.1982 26.6437 28.7962C26.1479 29.3446 25.5849 30.0504 24.9258 30.8817L15.7879 42.3908C15.5966 42.6142 15.4523 42.8739 15.3637 43.1543C15.275 43.4347 15.2439 43.7302 15.272 44.0229C15.3001 44.3157 15.387 44.5997 15.5275 44.8582C15.6679 45.1166 15.859 45.344 16.0894 45.5268C16.3197 45.7097 16.5846 45.8442 16.8681 45.9224C17.1516 46.0006 17.448 46.0208 17.7395 45.9818C18.031 45.9428 18.3116 45.8454 18.5646 45.6955C18.8177 45.5455 19.0378 45.3461 19.212 45.1092L28.3091 33.6583C29.0237 32.7571 29.4933 32.1708 29.8783 31.745C30.2574 31.3279 30.4324 31.2112 30.5141 31.1675C30.8174 31.0058 31.1544 30.9179 31.498 30.9108C31.8415 30.9037 32.182 30.9777 32.4916 31.1267C32.5762 31.1646 32.757 31.2725 33.1537 31.6721C33.5591 32.0804 34.052 32.6492 34.8074 33.5183L34.8541 33.5708C35.5483 34.37 36.1374 35.0525 36.6624 35.5775C37.202 36.1229 37.797 36.6333 38.5291 36.9862C39.4589 37.4328 40.4809 37.6539 41.5122 37.6316C42.5434 37.6093 43.5549 37.3443 44.4645 36.8579C45.1465 36.4671 45.7579 35.9643 46.2729 35.3704C46.7687 34.8221 47.3316 34.1162 47.9937 33.285L57.1316 21.7758Z" fill="#465EFF"/>
</svg>
