<svg width="70" height="70" viewBox="0 0 70 70" fill="none" xmlns="http://www.w3.org/2000/svg">
<path d="M35 52.5V37.1875M35 37.1875C36.4757 37.189 37.9457 37.0037 39.375 36.6362M35 37.1875C33.5243 37.189 32.0543 37.0037 30.625 36.6362M41.5625 58.4471C37.226 59.2678 32.774 59.2678 28.4375 58.4471M39.375 65.3975C36.4663 65.7021 33.5337 65.7021 30.625 65.3975M41.5625 52.5V51.94C41.5625 49.0729 43.4817 46.6229 45.9608 45.185C50.1258 42.773 53.3791 39.0548 55.2166 34.6064C57.0541 30.158 57.3732 25.2277 56.1245 20.5795C54.8757 15.9314 52.1289 11.8248 48.3095 8.89607C44.4902 5.96736 39.8115 4.38003 34.9985 4.38003C30.1856 4.38003 25.5069 5.96736 21.6876 8.89607C17.8682 11.8248 15.1214 15.9314 13.8726 20.5795C12.6239 25.2277 12.943 30.158 14.7805 34.6064C16.618 39.0548 19.8712 42.773 24.0363 45.185C26.5154 46.6229 28.4375 49.0729 28.4375 51.94V52.5" stroke="#465EFF" stroke-width="3.125" stroke-linecap="round" stroke-linejoin="round"/>
</svg>
