<svg width="30" height="30" viewBox="0 0 30 30" fill="none" xmlns="http://www.w3.org/2000/svg">
<path d="M17.5 26.25V24.1875C17.5 24.0208 17.5312 23.8596 17.5938 23.7037C17.6562 23.5479 17.75 23.4071 17.875 23.2812L24.4062 16.7812C24.5938 16.5937 24.8021 16.4583 25.0312 16.375C25.2604 16.2917 25.4896 16.25 25.7188 16.25C25.9688 16.25 26.2083 16.2971 26.4375 16.3912C26.6667 16.4854 26.875 16.6258 27.0625 16.8125L28.2188 17.9687C28.3854 18.1562 28.5158 18.3646 28.61 18.5937C28.7042 18.8229 28.7508 19.0521 28.75 19.2812C28.7492 19.5104 28.7075 19.745 28.625 19.985C28.5425 20.225 28.4071 20.4383 28.2188 20.625L21.7188 27.125C21.5938 27.25 21.4533 27.3437 21.2975 27.4062C21.1417 27.4687 20.98 27.5 20.8125 27.5H18.75C18.3958 27.5 18.0992 27.3804 17.86 27.1412C17.6208 26.9021 17.5008 26.605 17.5 26.25ZM19.375 25.625H20.5625L24.3438 21.8125L23.1875 20.6562L19.375 24.4375V25.625ZM7.5 27.5C6.8125 27.5 6.22417 27.2554 5.735 26.7662C5.24583 26.2771 5.00083 25.6883 5 25V5C5 4.3125 5.245 3.72417 5.735 3.235C6.225 2.74583 6.81333 2.50083 7.5 2.5H16.4688C16.8021 2.5 17.12 2.5625 17.4225 2.6875C17.725 2.8125 17.9904 2.98958 18.2188 3.21875L24.2812 9.28125C24.5104 9.51042 24.6875 9.77625 24.8125 10.0787C24.9375 10.3812 25 10.6987 25 11.0312V12.8125C25 13.1667 24.88 13.4637 24.64 13.7037C24.4 13.9437 24.1033 14.0633 23.75 14.0625C23.3967 14.0617 23.1 13.9417 22.86 13.7025C22.62 13.4633 22.5 13.1667 22.5 12.8125V11.25H17.5C17.1458 11.25 16.8492 11.13 16.61 10.89C16.3708 10.65 16.2508 10.3533 16.25 10V5H7.5V25H13.75C14.1042 25 14.4013 25.12 14.6413 25.36C14.8813 25.6 15.0008 25.8967 15 26.25C14.9992 26.6033 14.8792 26.9004 14.64 27.1412C14.4008 27.3821 14.1042 27.5017 13.75 27.5H7.5ZM23.7812 21.2187L23.1875 20.6562L24.3438 21.8125L23.7812 21.2187Z" fill="#465EFF"/>
</svg>
