<svg width="50" height="50" viewBox="0 0 50 50" fill="none" xmlns="http://www.w3.org/2000/svg">
<path d="M12.1878 35.625C13.9587 34.2708 15.9378 33.2034 18.1253 32.4229C20.3128 31.6423 22.6045 31.2513 25.0003 31.25C27.3962 31.2486 29.6878 31.6395 31.8753 32.4229C34.0628 33.2062 36.042 34.2736 37.8128 35.625C39.0281 34.2013 39.9746 32.5868 40.6524 30.7812C41.3302 28.9757 41.6684 27.0486 41.667 25C41.667 20.3819 40.0441 16.4493 36.7982 13.202C33.5524 9.95482 29.6198 8.3319 25.0003 8.33329C20.3809 8.33468 16.4482 9.95829 13.2024 13.2041C9.95658 16.45 8.33366 20.3819 8.33366 25C8.33366 27.0486 8.67255 28.9757 9.35033 30.7812C10.0281 32.5868 10.9739 34.2013 12.1878 35.625ZM25.0003 27.0833C22.9517 27.0833 21.2239 26.3805 19.817 24.975C18.4101 23.5694 17.7073 21.8416 17.7087 19.7916C17.7101 17.7416 18.4135 16.0138 19.8191 14.6083C21.2246 13.2027 22.9517 12.5 25.0003 12.5C27.0489 12.5 28.7767 13.2034 30.1837 14.6104C31.5906 16.0173 32.2934 17.7444 32.292 19.7916C32.2906 21.8388 31.5878 23.5666 30.1837 24.975C28.7795 26.3833 27.0517 27.0861 25.0003 27.0833ZM25.0003 45.8333C22.1184 45.8333 19.4101 45.2861 16.8753 44.1916C14.3406 43.0972 12.1357 41.6132 10.2607 39.7395C8.38575 37.8659 6.90172 35.6611 5.80866 33.125C4.71561 30.5888 4.16838 27.8805 4.16699 25C4.16561 22.1194 4.71283 19.4111 5.80866 16.875C6.9045 14.3388 8.38852 12.134 10.2607 10.2604C12.133 8.38677 14.3378 6.90274 16.8753 5.80829C19.4128 4.71385 22.1212 4.16663 25.0003 4.16663C27.8795 4.16663 30.5878 4.71385 33.1253 5.80829C35.6628 6.90274 37.8677 8.38677 39.7399 10.2604C41.6121 12.134 43.0969 14.3388 44.1941 16.875C45.2913 19.4111 45.8378 22.1194 45.8337 25C45.8295 27.8805 45.2823 30.5888 44.192 33.125C43.1017 35.6611 41.6177 37.8659 39.7399 39.7395C37.8621 41.6132 35.6573 43.0979 33.1253 44.1937C30.5934 45.2895 27.885 45.8361 25.0003 45.8333Z" fill="white"/>
</svg>
