<svg width="40" height="40" viewBox="0 0 40 40" fill="none" xmlns="http://www.w3.org/2000/svg">
<path d="M9.74968 28.5C11.1663 27.4167 12.7497 26.5628 14.4997 25.9384C16.2497 25.3139 18.083 25.0012 19.9997 25C21.9163 24.9989 23.7497 25.3117 25.4997 25.9384C27.2497 26.565 28.833 27.4189 30.2497 28.5C31.2219 27.3612 31.9791 26.0695 32.5213 24.625C33.0636 23.1806 33.3341 21.6389 33.333 20C33.333 16.3056 32.0347 13.1595 29.438 10.5617C26.8413 7.96393 23.6952 6.6656 19.9997 6.66671C16.3041 6.66782 13.158 7.96671 10.5613 10.5634C7.96468 13.16 6.66634 16.3056 6.66634 20C6.66634 21.6389 6.93745 23.1806 7.47968 24.625C8.0219 26.0695 8.77856 27.3612 9.74968 28.5ZM19.9997 21.6667C18.3608 21.6667 16.9786 21.1045 15.853 19.98C14.7275 18.8556 14.1652 17.4734 14.1663 15.8334C14.1675 14.1934 14.7302 12.8112 15.8547 11.6867C16.9791 10.5623 18.3608 10 19.9997 10C21.6386 10 23.0208 10.5628 24.1463 11.6884C25.2719 12.8139 25.8341 14.1956 25.833 15.8334C25.8319 17.4712 25.2697 18.8534 24.1463 19.98C23.023 21.1067 21.6408 21.6689 19.9997 21.6667ZM19.9997 36.6667C17.6941 36.6667 15.5275 36.2289 13.4997 35.3534C11.4719 34.4778 9.70801 33.2906 8.20801 31.7917C6.70801 30.2928 5.52079 28.5289 4.64634 26.5C3.7719 24.4712 3.33412 22.3045 3.33301 20C3.3319 17.6956 3.76968 15.5289 4.64634 13.5C5.52301 11.4712 6.71023 9.70726 8.20801 8.20837C9.70579 6.70949 11.4697 5.52226 13.4997 4.64671C15.5297 3.77115 17.6963 3.33337 19.9997 3.33337C22.303 3.33337 24.4697 3.77115 26.4997 4.64671C28.5297 5.52226 30.2936 6.70949 31.7913 8.20837C33.2891 9.70726 34.4769 11.4712 35.3547 13.5C36.2325 15.5289 36.6697 17.6956 36.6663 20C36.663 22.3045 36.2252 24.4712 35.353 26.5C34.4808 28.5289 33.2936 30.2928 31.7913 31.7917C30.2891 33.2906 28.5252 34.4784 26.4997 35.355C24.4741 36.2317 22.3075 36.6689 19.9997 36.6667Z" fill="white"/>
</svg>
