<svg width="1126" height="92" viewBox="0 0 1126 92" fill="none" xmlns="http://www.w3.org/2000/svg">
<rect width="1126" height="92" rx="20" fill="#465EFF"/>
<path d="M54.536 37.528V42.424H60.296V44.656H54.536V49.768H61.016V52H51.8V35.296H61.016V37.528H54.536ZM80.3939 38.56C81.4339 38.56 82.3619 38.776 83.1779 39.208C84.0099 39.64 84.6579 40.28 85.1219 41.128C85.6019 41.976 85.8419 43 85.8419 44.2V52H83.1299V44.608C83.1299 43.424 82.8339 42.52 82.2419 41.896C81.6499 41.256 80.8419 40.936 79.8179 40.936C78.7939 40.936 77.9779 41.256 77.3699 41.896C76.7779 42.52 76.4819 43.424 76.4819 44.608V52H73.7699V44.608C73.7699 43.424 73.4739 42.52 72.8819 41.896C72.2899 41.256 71.4819 40.936 70.4579 40.936C69.4339 40.936 68.6179 41.256 68.0099 41.896C67.4179 42.52 67.1219 43.424 67.1219 44.608V52H64.3859V38.776H67.1219V40.288C67.5699 39.744 68.1379 39.32 68.8259 39.016C69.5139 38.712 70.2499 38.56 71.0339 38.56C72.0899 38.56 73.0339 38.784 73.8659 39.232C74.6979 39.68 75.3379 40.328 75.7859 41.176C76.1859 40.376 76.8099 39.744 77.6579 39.28C78.5059 38.8 79.4179 38.56 80.3939 38.56ZM92.0594 40.72C92.5234 40.112 93.1554 39.6 93.9554 39.184C94.7554 38.768 95.6594 38.56 96.6674 38.56C97.8194 38.56 98.8674 38.848 99.8114 39.424C100.771 39.984 101.523 40.776 102.067 41.8C102.611 42.824 102.883 44 102.883 45.328C102.883 46.656 102.611 47.848 102.067 48.904C101.523 49.944 100.771 50.76 99.8114 51.352C98.8674 51.928 97.8194 52.216 96.6674 52.216C95.6594 52.216 94.7634 52.016 93.9794 51.616C93.1954 51.2 92.5554 50.688 92.0594 50.08V58.288H89.3234V38.776H92.0594V40.72ZM100.099 45.328C100.099 44.416 99.9074 43.632 99.5234 42.976C99.1554 42.304 98.6594 41.8 98.0354 41.464C97.4274 41.112 96.7714 40.936 96.0674 40.936C95.3794 40.936 94.7234 41.112 94.0994 41.464C93.4914 41.816 92.9954 42.328 92.6114 43C92.2434 43.672 92.0594 44.464 92.0594 45.376C92.0594 46.288 92.2434 47.088 92.6114 47.776C92.9954 48.448 93.4914 48.96 94.0994 49.312C94.7234 49.664 95.3794 49.84 96.0674 49.84C96.7714 49.84 97.4274 49.664 98.0354 49.312C98.6594 48.944 99.1554 48.416 99.5234 47.728C99.9074 47.04 100.099 46.24 100.099 45.328ZM108.325 40.696C108.725 40.024 109.253 39.504 109.909 39.136C110.581 38.752 111.373 38.56 112.285 38.56V41.392H111.589C110.517 41.392 109.701 41.664 109.141 42.208C108.597 42.752 108.325 43.696 108.325 45.04V52H105.589V38.776H108.325V40.696ZM126.92 45.064C126.92 45.56 126.888 46.008 126.824 46.408H116.72C116.8 47.464 117.192 48.312 117.896 48.952C118.6 49.592 119.464 49.912 120.488 49.912C121.96 49.912 123 49.296 123.608 48.064H126.56C126.16 49.28 125.432 50.28 124.376 51.064C123.336 51.832 122.04 52.216 120.488 52.216C119.224 52.216 118.088 51.936 117.08 51.376C116.088 50.8 115.304 50 114.728 48.976C114.168 47.936 113.888 46.736 113.888 45.376C113.888 44.016 114.16 42.824 114.704 41.8C115.264 40.76 116.04 39.96 117.032 39.4C118.04 38.84 119.192 38.56 120.488 38.56C121.736 38.56 122.848 38.832 123.824 39.376C124.8 39.92 125.56 40.688 126.104 41.68C126.648 42.656 126.92 43.784 126.92 45.064ZM124.064 44.2C124.048 43.192 123.688 42.384 122.984 41.776C122.28 41.168 121.408 40.864 120.368 40.864C119.424 40.864 118.616 41.168 117.944 41.776C117.272 42.368 116.872 43.176 116.744 44.2H124.064ZM134.413 52.216C133.373 52.216 132.437 52.032 131.605 51.664C130.789 51.28 130.141 50.768 129.661 50.128C129.181 49.472 128.925 48.744 128.893 47.944H131.725C131.773 48.504 132.037 48.976 132.517 49.36C133.013 49.728 133.629 49.912 134.365 49.912C135.133 49.912 135.725 49.768 136.141 49.48C136.573 49.176 136.789 48.792 136.789 48.328C136.789 47.832 136.549 47.464 136.069 47.224C135.605 46.984 134.861 46.72 133.837 46.432C132.845 46.16 132.037 45.896 131.413 45.64C130.789 45.384 130.245 44.992 129.781 44.464C129.333 43.936 129.109 43.24 129.109 42.376C129.109 41.672 129.317 41.032 129.733 40.456C130.149 39.864 130.741 39.4 131.509 39.064C132.293 38.728 133.189 38.56 134.197 38.56C135.701 38.56 136.909 38.944 137.821 39.712C138.749 40.464 139.245 41.496 139.309 42.808H136.573C136.525 42.216 136.285 41.744 135.853 41.392C135.421 41.04 134.837 40.864 134.101 40.864C133.381 40.864 132.829 41 132.445 41.272C132.061 41.544 131.869 41.904 131.869 42.352C131.869 42.704 131.997 43 132.253 43.24C132.509 43.48 132.821 43.672 133.189 43.816C133.557 43.944 134.101 44.112 134.821 44.32C135.781 44.576 136.565 44.84 137.173 45.112C137.797 45.368 138.333 45.752 138.781 46.264C139.229 46.776 139.461 47.456 139.477 48.304C139.477 49.056 139.269 49.728 138.853 50.32C138.437 50.912 137.845 51.376 137.077 51.712C136.325 52.048 135.437 52.216 134.413 52.216ZM141.521 45.328C141.521 44 141.793 42.824 142.337 41.8C142.897 40.776 143.649 39.984 144.593 39.424C145.553 38.848 146.609 38.56 147.761 38.56C148.801 38.56 149.705 38.768 150.473 39.184C151.257 39.584 151.881 40.088 152.345 40.696V38.776H155.105V52H152.345V50.032C151.881 50.656 151.249 51.176 150.449 51.592C149.649 52.008 148.737 52.216 147.713 52.216C146.577 52.216 145.537 51.928 144.593 51.352C143.649 50.76 142.897 49.944 142.337 48.904C141.793 47.848 141.521 46.656 141.521 45.328ZM152.345 45.376C152.345 44.464 152.153 43.672 151.769 43C151.401 42.328 150.913 41.816 150.305 41.464C149.697 41.112 149.041 40.936 148.337 40.936C147.633 40.936 146.977 41.112 146.369 41.464C145.761 41.8 145.265 42.304 144.881 42.976C144.513 43.632 144.329 44.416 144.329 45.328C144.329 46.24 144.513 47.04 144.881 47.728C145.265 48.416 145.761 48.944 146.369 49.312C146.993 49.664 147.649 49.84 148.337 49.84C149.041 49.84 149.697 49.664 150.305 49.312C150.913 48.96 151.401 48.448 151.769 47.776C152.153 47.088 152.345 46.288 152.345 45.376Z" fill="white"/>
<path d="M457.248 35.32C459.024 35.32 460.576 35.664 461.904 36.352C463.248 37.024 464.28 38 465 39.28C465.736 40.544 466.104 42.024 466.104 43.72C466.104 45.416 465.736 46.888 465 48.136C464.28 49.384 463.248 50.344 461.904 51.016C460.576 51.672 459.024 52 457.248 52H451.8V35.32H457.248ZM457.248 49.768C459.2 49.768 460.696 49.24 461.736 48.184C462.776 47.128 463.296 45.64 463.296 43.72C463.296 41.784 462.776 40.272 461.736 39.184C460.696 38.096 459.2 37.552 457.248 37.552H454.536V49.768H457.248ZM467.904 45.328C467.904 44 468.176 42.824 468.72 41.8C469.28 40.776 470.032 39.984 470.976 39.424C471.936 38.848 472.992 38.56 474.144 38.56C475.184 38.56 476.088 38.768 476.856 39.184C477.64 39.584 478.264 40.088 478.728 40.696V38.776H481.488V52H478.728V50.032C478.264 50.656 477.632 51.176 476.832 51.592C476.032 52.008 475.12 52.216 474.096 52.216C472.96 52.216 471.92 51.928 470.976 51.352C470.032 50.76 469.28 49.944 468.72 48.904C468.176 47.848 467.904 46.656 467.904 45.328ZM478.728 45.376C478.728 44.464 478.536 43.672 478.152 43C477.784 42.328 477.296 41.816 476.688 41.464C476.08 41.112 475.424 40.936 474.72 40.936C474.016 40.936 473.36 41.112 472.752 41.464C472.144 41.8 471.648 42.304 471.264 42.976C470.896 43.632 470.712 44.416 470.712 45.328C470.712 46.24 470.896 47.04 471.264 47.728C471.648 48.416 472.144 48.944 472.752 49.312C473.376 49.664 474.032 49.84 474.72 49.84C475.424 49.84 476.08 49.664 476.688 49.312C477.296 48.96 477.784 48.448 478.152 47.776C478.536 47.088 478.728 46.288 478.728 45.376ZM488.273 41.008V48.328C488.273 48.824 488.385 49.184 488.609 49.408C488.849 49.616 489.249 49.72 489.809 49.72H491.489V52H489.329C488.097 52 487.153 51.712 486.497 51.136C485.841 50.56 485.513 49.624 485.513 48.328V41.008H483.953V38.776H485.513V35.488H488.273V38.776H491.489V41.008H488.273ZM493.099 45.328C493.099 44 493.371 42.824 493.915 41.8C494.475 40.776 495.227 39.984 496.171 39.424C497.131 38.848 498.187 38.56 499.339 38.56C500.379 38.56 501.283 38.768 502.051 39.184C502.835 39.584 503.459 40.088 503.923 40.696V38.776H506.683V52H503.923V50.032C503.459 50.656 502.827 51.176 502.027 51.592C501.227 52.008 500.315 52.216 499.291 52.216C498.155 52.216 497.115 51.928 496.171 51.352C495.227 50.76 494.475 49.944 493.915 48.904C493.371 47.848 493.099 46.656 493.099 45.328ZM503.923 45.376C503.923 44.464 503.731 43.672 503.347 43C502.979 42.328 502.491 41.816 501.883 41.464C501.275 41.112 500.619 40.936 499.915 40.936C499.211 40.936 498.555 41.112 497.947 41.464C497.339 41.8 496.843 42.304 496.459 42.976C496.091 43.632 495.907 44.416 495.907 45.328C495.907 46.24 496.091 47.04 496.459 47.728C496.843 48.416 497.339 48.944 497.947 49.312C498.571 49.664 499.227 49.84 499.915 49.84C500.619 49.84 501.275 49.664 501.883 49.312C502.491 48.96 502.979 48.448 503.347 47.776C503.731 47.088 503.923 46.288 503.923 45.376ZM515.599 45.328C515.599 44 515.871 42.824 516.415 41.8C516.975 40.776 517.727 39.984 518.671 39.424C519.631 38.848 520.695 38.56 521.863 38.56C522.727 38.56 523.575 38.752 524.407 39.136C525.255 39.504 525.927 40 526.423 40.624V34.24H529.183V52H526.423V50.008C525.975 50.648 525.351 51.176 524.551 51.592C523.767 52.008 522.863 52.216 521.839 52.216C520.687 52.216 519.631 51.928 518.671 51.352C517.727 50.76 516.975 49.944 516.415 48.904C515.871 47.848 515.599 46.656 515.599 45.328ZM526.423 45.376C526.423 44.464 526.231 43.672 525.847 43C525.479 42.328 524.991 41.816 524.383 41.464C523.775 41.112 523.119 40.936 522.415 40.936C521.711 40.936 521.055 41.112 520.447 41.464C519.839 41.8 519.343 42.304 518.959 42.976C518.591 43.632 518.407 44.416 518.407 45.328C518.407 46.24 518.591 47.04 518.959 47.728C519.343 48.416 519.839 48.944 520.447 49.312C521.071 49.664 521.727 49.84 522.415 49.84C523.119 49.84 523.775 49.664 524.383 49.312C524.991 48.96 525.479 48.448 525.847 47.776C526.231 47.088 526.423 46.288 526.423 45.376ZM544.897 45.064C544.897 45.56 544.865 46.008 544.801 46.408H534.697C534.777 47.464 535.169 48.312 535.873 48.952C536.577 49.592 537.441 49.912 538.465 49.912C539.937 49.912 540.977 49.296 541.585 48.064H544.537C544.137 49.28 543.409 50.28 542.353 51.064C541.313 51.832 540.017 52.216 538.465 52.216C537.201 52.216 536.065 51.936 535.057 51.376C534.065 50.8 533.281 50 532.705 48.976C532.145 47.936 531.865 46.736 531.865 45.376C531.865 44.016 532.137 42.824 532.681 41.8C533.241 40.76 534.017 39.96 535.009 39.4C536.017 38.84 537.169 38.56 538.465 38.56C539.713 38.56 540.825 38.832 541.801 39.376C542.777 39.92 543.537 40.688 544.081 41.68C544.625 42.656 544.897 43.784 544.897 45.064ZM542.041 44.2C542.025 43.192 541.665 42.384 540.961 41.776C540.257 41.168 539.385 40.864 538.345 40.864C537.401 40.864 536.593 41.168 535.921 41.776C535.249 42.368 534.849 43.176 534.721 44.2H542.041ZM552.911 43.624C552.911 41.992 553.287 40.528 554.039 39.232C554.807 37.936 555.839 36.928 557.135 36.208C558.447 35.472 559.879 35.104 561.431 35.104C563.207 35.104 564.783 35.544 566.159 36.424C567.551 37.288 568.559 38.52 569.183 40.12H565.895C565.463 39.24 564.863 38.584 564.095 38.152C563.327 37.72 562.439 37.504 561.431 37.504C560.327 37.504 559.343 37.752 558.479 38.248C557.615 38.744 556.935 39.456 556.439 40.384C555.959 41.312 555.719 42.392 555.719 43.624C555.719 44.856 555.959 45.936 556.439 46.864C556.935 47.792 557.615 48.512 558.479 49.024C559.343 49.52 560.327 49.768 561.431 49.768C562.439 49.768 563.327 49.552 564.095 49.12C564.863 48.688 565.463 48.032 565.895 47.152H569.183C568.559 48.752 567.551 49.984 566.159 50.848C564.783 51.712 563.207 52.144 561.431 52.144C559.863 52.144 558.431 51.784 557.135 51.064C555.839 50.328 554.807 49.312 554.039 48.016C553.287 46.72 552.911 45.256 552.911 43.624ZM571.474 45.328C571.474 44 571.746 42.824 572.29 41.8C572.85 40.776 573.602 39.984 574.546 39.424C575.506 38.848 576.562 38.56 577.714 38.56C578.754 38.56 579.658 38.768 580.426 39.184C581.21 39.584 581.834 40.088 582.298 40.696V38.776H585.058V52H582.298V50.032C581.834 50.656 581.202 51.176 580.402 51.592C579.602 52.008 578.69 52.216 577.666 52.216C576.53 52.216 575.49 51.928 574.546 51.352C573.602 50.76 572.85 49.944 572.29 48.904C571.746 47.848 571.474 46.656 571.474 45.328ZM582.298 45.376C582.298 44.464 582.106 43.672 581.722 43C581.354 42.328 580.866 41.816 580.258 41.464C579.65 41.112 578.994 40.936 578.29 40.936C577.586 40.936 576.93 41.112 576.322 41.464C575.714 41.8 575.218 42.304 574.834 42.976C574.466 43.632 574.282 44.416 574.282 45.328C574.282 46.24 574.466 47.04 574.834 47.728C575.218 48.416 575.714 48.944 576.322 49.312C576.946 49.664 577.602 49.84 578.29 49.84C578.994 49.84 579.65 49.664 580.258 49.312C580.866 48.96 581.354 48.448 581.722 47.776C582.106 47.088 582.298 46.288 582.298 45.376ZM587.74 45.328C587.74 44 588.012 42.824 588.556 41.8C589.116 40.776 589.868 39.984 590.812 39.424C591.772 38.848 592.836 38.56 594.004 38.56C594.868 38.56 595.716 38.752 596.548 39.136C597.396 39.504 598.068 40 598.564 40.624V34.24H601.324V52H598.564V50.008C598.116 50.648 597.492 51.176 596.692 51.592C595.908 52.008 595.004 52.216 593.98 52.216C592.828 52.216 591.772 51.928 590.812 51.352C589.868 50.76 589.116 49.944 588.556 48.904C588.012 47.848 587.74 46.656 587.74 45.328ZM598.564 45.376C598.564 44.464 598.372 43.672 597.988 43C597.62 42.328 597.132 41.816 596.524 41.464C595.916 41.112 595.26 40.936 594.556 40.936C593.852 40.936 593.196 41.112 592.588 41.464C591.98 41.8 591.484 42.304 591.1 42.976C590.732 43.632 590.548 44.416 590.548 45.328C590.548 46.24 590.732 47.04 591.1 47.728C591.484 48.416 591.98 48.944 592.588 49.312C593.212 49.664 593.868 49.84 594.556 49.84C595.26 49.84 595.916 49.664 596.524 49.312C597.132 48.96 597.62 48.448 597.988 47.776C598.372 47.088 598.564 46.288 598.564 45.376ZM604.005 45.328C604.005 44 604.277 42.824 604.821 41.8C605.381 40.776 606.133 39.984 607.077 39.424C608.037 38.848 609.093 38.56 610.245 38.56C611.285 38.56 612.189 38.768 612.957 39.184C613.741 39.584 614.365 40.088 614.829 40.696V38.776H617.589V52H614.829V50.032C614.365 50.656 613.733 51.176 612.933 51.592C612.133 52.008 611.221 52.216 610.197 52.216C609.061 52.216 608.021 51.928 607.077 51.352C606.133 50.76 605.381 49.944 604.821 48.904C604.277 47.848 604.005 46.656 604.005 45.328ZM614.829 45.376C614.829 44.464 614.637 43.672 614.253 43C613.885 42.328 613.397 41.816 612.789 41.464C612.181 41.112 611.525 40.936 610.821 40.936C610.117 40.936 609.461 41.112 608.853 41.464C608.245 41.8 607.749 42.304 607.365 42.976C606.997 43.632 606.813 44.416 606.813 45.328C606.813 46.24 606.997 47.04 607.365 47.728C607.749 48.416 608.245 48.944 608.853 49.312C609.477 49.664 610.133 49.84 610.821 49.84C611.525 49.84 612.181 49.664 612.789 49.312C613.397 48.96 613.885 48.448 614.253 47.776C614.637 47.088 614.829 46.288 614.829 45.376ZM625.983 52.216C624.943 52.216 624.007 52.032 623.175 51.664C622.359 51.28 621.711 50.768 621.231 50.128C620.751 49.472 620.495 48.744 620.463 47.944H623.295C623.343 48.504 623.607 48.976 624.087 49.36C624.583 49.728 625.199 49.912 625.935 49.912C626.703 49.912 627.295 49.768 627.711 49.48C628.143 49.176 628.359 48.792 628.359 48.328C628.359 47.832 628.119 47.464 627.639 47.224C627.175 46.984 626.431 46.72 625.407 46.432C624.415 46.16 623.607 45.896 622.983 45.64C622.359 45.384 621.815 44.992 621.351 44.464C620.903 43.936 620.679 43.24 620.679 42.376C620.679 41.672 620.887 41.032 621.303 40.456C621.719 39.864 622.311 39.4 623.079 39.064C623.863 38.728 624.759 38.56 625.767 38.56C627.271 38.56 628.479 38.944 629.391 39.712C630.319 40.464 630.815 41.496 630.879 42.808H628.143C628.095 42.216 627.855 41.744 627.423 41.392C626.991 41.04 626.407 40.864 625.671 40.864C624.951 40.864 624.399 41 624.015 41.272C623.631 41.544 623.439 41.904 623.439 42.352C623.439 42.704 623.567 43 623.823 43.24C624.079 43.48 624.391 43.672 624.759 43.816C625.127 43.944 625.671 44.112 626.391 44.32C627.351 44.576 628.135 44.84 628.743 45.112C629.367 45.368 629.903 45.752 630.351 46.264C630.799 46.776 631.031 47.456 631.047 48.304C631.047 49.056 630.839 49.728 630.423 50.32C630.007 50.912 629.415 51.376 628.647 51.712C627.895 52.048 627.007 52.216 625.983 52.216ZM637.195 41.008V48.328C637.195 48.824 637.307 49.184 637.531 49.408C637.771 49.616 638.171 49.72 638.731 49.72H640.411V52H638.251C637.019 52 636.075 51.712 635.419 51.136C634.763 50.56 634.435 49.624 634.435 48.328V41.008H632.875V38.776H634.435V35.488H637.195V38.776H640.411V41.008H637.195ZM645.669 40.696C646.069 40.024 646.597 39.504 647.253 39.136C647.925 38.752 648.717 38.56 649.629 38.56V41.392H648.933C647.861 41.392 647.045 41.664 646.485 42.208C645.941 42.752 645.669 43.696 645.669 45.04V52H642.933V38.776H645.669V40.696ZM657.88 52.216C656.632 52.216 655.504 51.936 654.496 51.376C653.488 50.8 652.696 50 652.12 48.976C651.544 47.936 651.256 46.736 651.256 45.376C651.256 44.032 651.552 42.84 652.144 41.8C652.736 40.76 653.544 39.96 654.568 39.4C655.592 38.84 656.736 38.56 658 38.56C659.264 38.56 660.408 38.84 661.432 39.4C662.456 39.96 663.264 40.76 663.856 41.8C664.448 42.84 664.744 44.032 664.744 45.376C664.744 46.72 664.44 47.912 663.832 48.952C663.224 49.992 662.392 50.8 661.336 51.376C660.296 51.936 659.144 52.216 657.88 52.216ZM657.88 49.84C658.584 49.84 659.24 49.672 659.848 49.336C660.472 49 660.976 48.496 661.36 47.824C661.744 47.152 661.936 46.336 661.936 45.376C661.936 44.416 661.752 43.608 661.384 42.952C661.016 42.28 660.528 41.776 659.92 41.44C659.312 41.104 658.656 40.936 657.952 40.936C657.248 40.936 656.592 41.104 655.984 41.44C655.392 41.776 654.92 42.28 654.568 42.952C654.216 43.608 654.04 44.416 654.04 45.376C654.04 46.8 654.4 47.904 655.12 48.688C655.856 49.456 656.776 49.84 657.88 49.84Z" fill="white"/>
<path d="M940.296 52.168C939.176 52.168 938.168 51.976 937.272 51.592C936.376 51.192 935.672 50.632 935.16 49.912C934.648 49.192 934.392 48.352 934.392 47.392H937.32C937.384 48.112 937.664 48.704 938.16 49.168C938.672 49.632 939.384 49.864 940.296 49.864C941.24 49.864 941.976 49.64 942.504 49.192C943.032 48.728 943.296 48.136 943.296 47.416C943.296 46.856 943.128 46.4 942.792 46.048C942.472 45.696 942.064 45.424 941.568 45.232C941.088 45.04 940.416 44.832 939.552 44.608C938.464 44.32 937.576 44.032 936.888 43.744C936.216 43.44 935.64 42.976 935.16 42.352C934.68 41.728 934.44 40.896 934.44 39.856C934.44 38.896 934.68 38.056 935.16 37.336C935.64 36.616 936.312 36.064 937.176 35.68C938.04 35.296 939.04 35.104 940.176 35.104C941.792 35.104 943.112 35.512 944.136 36.328C945.176 37.128 945.752 38.232 945.864 39.64H942.84C942.792 39.032 942.504 38.512 941.976 38.08C941.448 37.648 940.752 37.432 939.888 37.432C939.104 37.432 938.464 37.632 937.968 38.032C937.472 38.432 937.224 39.008 937.224 39.76C937.224 40.272 937.376 40.696 937.68 41.032C938 41.352 938.4 41.608 938.88 41.8C939.36 41.992 940.016 42.2 940.848 42.424C941.952 42.728 942.848 43.032 943.536 43.336C944.24 43.64 944.832 44.112 945.312 44.752C945.808 45.376 946.056 46.216 946.056 47.272C946.056 48.12 945.824 48.92 945.36 49.672C944.912 50.424 944.248 51.032 943.368 51.496C942.504 51.944 941.48 52.168 940.296 52.168ZM952.476 41.008V48.328C952.476 48.824 952.588 49.184 952.812 49.408C953.052 49.616 953.452 49.72 954.012 49.72H955.692V52H953.532C952.3 52 951.356 51.712 950.7 51.136C950.044 50.56 949.716 49.624 949.716 48.328V41.008H948.156V38.776H949.716V35.488H952.476V38.776H955.692V41.008H952.476ZM957.302 45.328C957.302 44 957.574 42.824 958.118 41.8C958.678 40.776 959.43 39.984 960.374 39.424C961.334 38.848 962.39 38.56 963.542 38.56C964.582 38.56 965.486 38.768 966.254 39.184C967.038 39.584 967.662 40.088 968.126 40.696V38.776H970.886V52H968.126V50.032C967.662 50.656 967.03 51.176 966.23 51.592C965.43 52.008 964.518 52.216 963.494 52.216C962.358 52.216 961.318 51.928 960.374 51.352C959.43 50.76 958.678 49.944 958.118 48.904C957.574 47.848 957.302 46.656 957.302 45.328ZM968.126 45.376C968.126 44.464 967.934 43.672 967.55 43C967.182 42.328 966.694 41.816 966.086 41.464C965.478 41.112 964.822 40.936 964.118 40.936C963.414 40.936 962.758 41.112 962.15 41.464C961.542 41.8 961.046 42.304 960.662 42.976C960.294 43.632 960.11 44.416 960.11 45.328C960.11 46.24 960.294 47.04 960.662 47.728C961.046 48.416 961.542 48.944 962.15 49.312C962.774 49.664 963.43 49.84 964.118 49.84C964.822 49.84 965.478 49.664 966.086 49.312C966.694 48.96 967.182 48.448 967.55 47.776C967.934 47.088 968.126 46.288 968.126 45.376ZM977.672 41.008V48.328C977.672 48.824 977.784 49.184 978.008 49.408C978.248 49.616 978.648 49.72 979.208 49.72H980.888V52H978.728C977.496 52 976.552 51.712 975.896 51.136C975.24 50.56 974.912 49.624 974.912 48.328V41.008H973.352V38.776H974.912V35.488H977.672V38.776H980.888V41.008H977.672ZM995.385 38.776V52H992.649V50.44C992.217 50.984 991.649 51.416 990.945 51.736C990.257 52.04 989.521 52.192 988.737 52.192C987.697 52.192 986.761 51.976 985.929 51.544C985.113 51.112 984.465 50.472 983.985 49.624C983.521 48.776 983.289 47.752 983.289 46.552V38.776H986.001V46.144C986.001 47.328 986.297 48.24 986.889 48.88C987.481 49.504 988.289 49.816 989.313 49.816C990.337 49.816 991.145 49.504 991.737 48.88C992.345 48.24 992.649 47.328 992.649 46.144V38.776H995.385ZM1003.8 52.216C1002.76 52.216 1001.82 52.032 1000.99 51.664C1000.17 51.28 999.523 50.768 999.043 50.128C998.563 49.472 998.307 48.744 998.275 47.944H1001.11C1001.16 48.504 1001.42 48.976 1001.9 49.36C1002.4 49.728 1003.01 49.912 1003.75 49.912C1004.52 49.912 1005.11 49.768 1005.52 49.48C1005.96 49.176 1006.17 48.792 1006.17 48.328C1006.17 47.832 1005.93 47.464 1005.45 47.224C1004.99 46.984 1004.24 46.72 1003.22 46.432C1002.23 46.16 1001.42 45.896 1000.8 45.64C1000.17 45.384 999.627 44.992 999.163 44.464C998.715 43.936 998.491 43.24 998.491 42.376C998.491 41.672 998.699 41.032 999.115 40.456C999.531 39.864 1000.12 39.4 1000.89 39.064C1001.68 38.728 1002.57 38.56 1003.58 38.56C1005.08 38.56 1006.29 38.944 1007.2 39.712C1008.13 40.464 1008.63 41.496 1008.69 42.808H1005.96C1005.91 42.216 1005.67 41.744 1005.24 41.392C1004.8 41.04 1004.22 40.864 1003.48 40.864C1002.76 40.864 1002.21 41 1001.83 41.272C1001.44 41.544 1001.25 41.904 1001.25 42.352C1001.25 42.704 1001.38 43 1001.64 43.24C1001.89 43.48 1002.2 43.672 1002.57 43.816C1002.94 43.944 1003.48 44.112 1004.2 44.32C1005.16 44.576 1005.95 44.84 1006.56 45.112C1007.18 45.368 1007.72 45.752 1008.16 46.264C1008.61 46.776 1008.84 47.456 1008.86 48.304C1008.86 49.056 1008.65 49.728 1008.24 50.32C1007.82 50.912 1007.23 51.376 1006.46 51.712C1005.71 52.048 1004.82 52.216 1003.8 52.216Z" fill="white"/>
</svg>
