<svg width="40" height="40" viewBox="0 0 40 40" fill="none" xmlns="http://www.w3.org/2000/svg">
<path d="M19.9997 5C17.016 5 14.1545 6.18526 12.0447 8.29505C9.93495 10.4048 8.74969 13.2663 8.74969 16.25V22.2525L6.33969 28.2875C6.2642 28.477 6.23626 28.6822 6.25828 28.885C6.28031 29.0878 6.35164 29.2821 6.46606 29.451C6.58047 29.6199 6.73448 29.7583 6.91465 29.854C7.09483 29.9496 7.29568 29.9998 7.49969 30H32.4997C32.7037 29.9998 32.9045 29.9496 33.0847 29.854C33.2649 29.7583 33.4189 29.6199 33.5333 29.451C33.6477 29.2821 33.7191 29.0878 33.7411 28.885C33.7631 28.6822 33.7352 28.477 33.6597 28.2875L31.2497 22.25V16.25C31.2497 13.2663 30.0644 10.4048 27.9546 8.29505C25.8449 6.18526 22.9834 5 19.9997 5ZM19.9997 36.25C18.891 36.2503 17.8136 35.8821 16.9371 35.2032C16.0605 34.5244 15.4344 33.5735 15.1572 32.5H24.8422C24.565 33.5735 23.9389 34.5244 23.0623 35.2032C22.1857 35.8821 21.1084 36.2503 19.9997 36.25Z" fill="white"/>
</svg>
