<svg width="40" height="37" viewBox="0 0 40 37" fill="none" xmlns="http://www.w3.org/2000/svg">
<path d="M35.5556 0C36.7343 0 37.8648 0.433134 38.6983 1.20412C39.5317 1.9751 40 3.02078 40 4.11111V32.8889C40 33.9792 39.5317 35.0249 38.6983 35.7959C37.8648 36.5669 36.7343 37 35.5556 37H4.44444C3.2657 37 2.13524 36.5669 1.30175 35.7959C0.468253 35.0249 0 33.9792 0 32.8889V4.11111C0 3.02078 0.468253 1.9751 1.30175 1.20412C2.13524 0.433134 3.2657 0 4.44444 0H35.5556ZM34.4444 31.8611V20.9667C34.4444 19.1894 33.6812 17.485 32.3226 16.2283C30.964 14.9716 29.1213 14.2656 27.2 14.2656C25.3111 14.2656 23.1111 15.3344 22.0444 16.9378V14.6561H15.8444V31.8611H22.0444V21.7272C22.0444 20.1444 23.4222 18.8494 25.1333 18.8494C25.9585 18.8494 26.7498 19.1526 27.3332 19.6923C27.9167 20.232 28.2444 20.964 28.2444 21.7272V31.8611H34.4444ZM8.62222 11.4289C9.61236 11.4289 10.562 11.0651 11.2621 10.4174C11.9622 9.76981 12.3556 8.89144 12.3556 7.97556C12.3556 6.06389 10.6889 4.50167 8.62222 4.50167C7.62619 4.50167 6.67095 4.86766 5.96664 5.51915C5.26234 6.17063 4.86667 7.05422 4.86667 7.97556C4.86667 9.88722 6.55556 11.4289 8.62222 11.4289ZM11.7111 31.8611V14.6561H5.55556V31.8611H11.7111Z" fill="white"/>
</svg>
