<svg xmlns="http://www.w3.org/2000/svg" xmlns:xlink="http://www.w3.org/1999/xlink" width="500" zoomAndPan="magnify" viewBox="0 0 375 374.999991" height="500" preserveAspectRatio="xMidYMid meet" version="1.0"><path fill="#fcfc30" d="M 302.960938 160.445312 L 97.9375 50.070312 C 96.90625 49.507812 95.835938 49.011719 94.738281 48.589844 C 93.640625 48.164062 92.515625 47.816406 91.371094 47.539062 C 90.226562 47.261719 89.070312 47.058594 87.898438 46.933594 C 86.726562 46.804688 85.550781 46.753906 84.375 46.78125 C 83.195312 46.808594 82.027344 46.910156 80.863281 47.089844 C 79.699219 47.269531 78.550781 47.523438 77.417969 47.851562 C 76.289062 48.179688 75.183594 48.582031 74.101562 49.054688 C 73.023438 49.527344 71.980469 50.066406 70.972656 50.675781 C 69.859375 51.347656 68.800781 52.089844 67.785156 52.902344 C 66.769531 53.710938 65.8125 54.585938 64.914062 55.519531 C 64.015625 56.457031 63.179688 57.449219 62.410156 58.492188 C 61.636719 59.539062 60.9375 60.628906 60.308594 61.765625 C 59.683594 62.902344 59.128906 64.074219 58.65625 65.28125 C 58.179688 66.488281 57.785156 67.722656 57.472656 68.984375 C 57.15625 70.242188 56.925781 71.519531 56.78125 72.808594 C 56.632812 74.097656 56.570312 75.390625 56.589844 76.691406 L 56.589844 297.363281 C 56.570312 298.660156 56.636719 299.953125 56.785156 301.242188 C 56.933594 302.53125 57.164062 303.804688 57.480469 305.0625 C 57.792969 306.320312 58.1875 307.550781 58.664062 308.757812 C 59.140625 309.964844 59.691406 311.136719 60.320312 312.269531 C 60.949219 313.402344 61.648438 314.492188 62.417969 315.535156 C 63.1875 316.578125 64.023438 317.570312 64.921875 318.503906 C 65.820312 319.4375 66.777344 320.308594 67.789062 321.121094 C 68.800781 321.929688 69.863281 322.667969 70.972656 323.339844 C 71.980469 323.949219 73.023438 324.492188 74.101562 324.964844 C 75.183594 325.4375 76.289062 325.835938 77.417969 326.164062 C 78.550781 326.496094 79.699219 326.75 80.863281 326.925781 C 82.027344 327.105469 83.195312 327.210938 84.375 327.234375 C 85.550781 327.261719 86.726562 327.210938 87.898438 327.085938 C 89.070312 326.960938 90.226562 326.757812 91.371094 326.480469 C 92.515625 326.203125 93.640625 325.851562 94.738281 325.429688 C 95.835938 325.003906 96.90625 324.511719 97.9375 323.949219 L 302.960938 213.613281 C 304.128906 212.945312 305.25 212.207031 306.320312 211.394531 C 307.390625 210.582031 308.402344 209.703125 309.355469 208.753906 C 310.3125 207.808594 311.199219 206.804688 312.023438 205.738281 C 312.84375 204.675781 313.59375 203.5625 314.269531 202.402344 C 314.945312 201.238281 315.539062 200.039062 316.058594 198.796875 C 316.574219 197.554688 317.007812 196.285156 317.359375 194.988281 C 317.707031 193.691406 317.96875 192.375 318.148438 191.042969 C 318.324219 189.710938 318.410156 188.371094 318.410156 187.027344 C 318.410156 185.683594 318.324219 184.34375 318.148438 183.011719 C 317.96875 181.679688 317.707031 180.363281 317.359375 179.066406 C 317.007812 177.769531 316.574219 176.5 316.058594 175.257812 C 315.539062 174.015625 314.945312 172.816406 314.269531 171.652344 C 313.59375 170.492188 312.84375 169.378906 312.023438 168.316406 C 311.199219 167.25 310.3125 166.246094 309.355469 165.300781 C 308.402344 164.355469 307.390625 163.472656 306.320312 162.660156 C 305.25 161.847656 304.128906 161.109375 302.960938 160.445312 Z M 302.960938 160.445312 " fill-opacity="1" fill-rule="nonzero"/></svg>