<svg width="20" height="25" viewBox="0 0 20 25" fill="none" xmlns="http://www.w3.org/2000/svg">
<path d="M2.5 0C1.83696 0 1.20107 0.263392 0.732233 0.732233C0.263392 1.20107 0 1.83696 0 2.5V22.5C0 23.163 0.263392 23.7989 0.732233 24.2678C1.20107 24.7366 1.83696 25 2.5 25H17.5C18.163 25 18.7989 24.7366 19.2678 24.2678C19.7366 23.7989 20 23.163 20 22.5V9.785C19.9999 9.12201 19.7364 8.48623 19.2675 8.0175L11.9825 0.7325C11.5138 0.263627 10.878 0.000141594 10.215 0H2.5ZM1.875 2.5C1.875 2.33424 1.94085 2.17527 2.05806 2.05806C2.17527 1.94085 2.33424 1.875 2.5 1.875H10V7.5C10 8.16304 10.2634 8.79893 10.7322 9.26777C11.2011 9.73661 11.837 10 12.5 10H18.125V22.5C18.125 22.6658 18.0592 22.8247 17.9419 22.9419C17.8247 23.0592 17.6658 23.125 17.5 23.125H2.5C2.33424 23.125 2.17527 23.0592 2.05806 22.9419C1.94085 22.8247 1.875 22.6658 1.875 22.5V2.5ZM16.725 8.125H12.5C12.3342 8.125 12.1753 8.05915 12.0581 7.94194C11.9408 7.82473 11.875 7.66576 11.875 7.5V3.275L16.725 8.125Z" fill="white"/>
</svg>
