<svg width="25" height="25" viewBox="0 0 25 25" fill="none" xmlns="http://www.w3.org/2000/svg">
<path d="M20.8337 15.8857C21.0409 15.8857 21.2396 15.9681 21.3861 16.1146C21.5326 16.2611 21.6149 16.4598 21.6149 16.667V17.7087C21.6149 18.7447 21.2034 19.7382 20.4708 20.4708C19.7382 21.2034 18.7447 21.6149 17.7087 21.6149H7.29199C6.25599 21.6149 5.26242 21.2034 4.52986 20.4708C3.79729 19.7382 3.38574 18.7447 3.38574 17.7087V16.6712C3.38574 16.464 3.46805 16.2652 3.61456 16.1187C3.76108 15.9722 3.95979 15.8899 4.16699 15.8899C4.37419 15.8899 4.57291 15.9722 4.71942 16.1187C4.86593 16.2652 4.94824 16.464 4.94824 16.6712V17.7087C4.94824 18.3303 5.19517 18.9264 5.63471 19.3659C6.07425 19.8055 6.67039 20.0524 7.29199 20.0524H17.7087C18.3303 20.0524 18.9264 19.8055 19.3659 19.3659C19.8055 18.9264 20.0524 18.3303 20.0524 17.7087V16.667C20.0524 16.4598 20.1347 16.2611 20.2812 16.1146C20.4277 15.9681 20.6265 15.8857 20.8337 15.8857Z" fill="black"/>
<path d="M13.2819 4.6875C13.2819 4.4803 13.1996 4.28159 13.053 4.13507C12.9065 3.98856 12.7078 3.90625 12.5006 3.90625C12.2934 3.90625 12.0947 3.98856 11.9482 4.13507C11.8017 4.28159 11.7194 4.4803 11.7194 4.6875V11.9479H8.3027C8.1564 12.0944 8.07422 12.293 8.07422 12.5C8.07422 12.707 8.1564 12.9056 8.3027 13.0521L11.9485 16.6979C12.095 16.8442 12.2936 16.9264 12.5006 16.9264C12.7076 16.9264 12.9062 16.8442 13.0527 16.6979L16.6985 13.0521C16.8448 12.9056 16.927 12.707 16.927 12.5C16.927 12.293 16.8448 12.0944 16.6985 11.9479H13.2819V4.6875Z" fill="black"/>
</svg>
