<svg width="24" height="25" viewBox="0 0 24 25" fill="none" xmlns="http://www.w3.org/2000/svg">
<path d="M12.5 23.75V21.6875C12.5 21.5208 12.5312 21.3596 12.5938 21.2037C12.6562 21.0479 12.75 20.9071 12.875 20.7812L19.4062 14.2812C19.5938 14.0937 19.8021 13.9583 20.0312 13.875C20.2604 13.7917 20.4896 13.75 20.7188 13.75C20.9688 13.75 21.2083 13.7971 21.4375 13.8912C21.6667 13.9854 21.875 14.1258 22.0625 14.3125L23.2188 15.4687C23.3854 15.6562 23.5158 15.8646 23.61 16.0937C23.7042 16.3229 23.7508 16.5521 23.75 16.7812C23.7492 17.0104 23.7075 17.245 23.625 17.485C23.5425 17.725 23.4071 17.9383 23.2188 18.125L16.7188 24.625C16.5938 24.75 16.4533 24.8437 16.2975 24.9062C16.1417 24.9687 15.98 25 15.8125 25H13.75C13.3958 25 13.0992 24.8804 12.86 24.6412C12.6208 24.4021 12.5008 24.105 12.5 23.75ZM14.375 23.125H15.5625L19.3438 19.3125L18.1875 18.1562L14.375 21.9375V23.125ZM2.5 25C1.8125 25 1.22417 24.7554 0.735 24.2662C0.245833 23.7771 0.000833333 23.1883 0 22.5V2.5C0 1.8125 0.245 1.22417 0.735 0.735C1.225 0.245833 1.81333 0.000833333 2.5 0H11.4688C11.8021 0 12.12 0.0625001 12.4225 0.1875C12.725 0.3125 12.9904 0.489583 13.2188 0.71875L19.2812 6.78125C19.5104 7.01042 19.6875 7.27625 19.8125 7.57875C19.9375 7.88125 20 8.19875 20 8.53125V10.3125C20 10.6667 19.88 10.9637 19.64 11.2037C19.4 11.4437 19.1033 11.5633 18.75 11.5625C18.3967 11.5617 18.1 11.4417 17.86 11.2025C17.62 10.9633 17.5 10.6667 17.5 10.3125V8.75H12.5C12.1458 8.75 11.8492 8.63 11.61 8.39C11.3708 8.15 11.2508 7.85333 11.25 7.5V2.5H2.5V22.5H8.75C9.10417 22.5 9.40125 22.62 9.64125 22.86C9.88125 23.1 10.0008 23.3967 10 23.75C9.99917 24.1033 9.87917 24.4004 9.64 24.6412C9.40083 24.8821 9.10417 25.0017 8.75 25H2.5ZM18.7812 18.7187L18.1875 18.1562L19.3438 19.3125L18.7812 18.7187Z" fill="black"/>
</svg>
