<svg width="42" height="41" viewBox="0 0 42 41" fill="none" xmlns="http://www.w3.org/2000/svg">
<path d="M39.243 3H5.42301C4.86871 3 4.33711 3.2202 3.94515 3.61215C3.5532 4.0041 3.33301 4.5357 3.33301 5.09V38.91C3.33301 39.4643 3.5532 39.9959 3.94515 40.3879C4.33711 40.7798 4.86871 41 5.42301 41H23.625V26.275H18.685V20.575H23.625V16.3C23.5227 15.2963 23.6412 14.2824 23.9722 13.3294C24.3032 12.3764 24.8387 11.5073 25.5411 10.7832C26.2435 10.059 27.0959 9.49732 28.0384 9.13745C28.9809 8.77759 29.9907 8.62828 30.997 8.7C32.4759 8.68979 33.954 8.76592 35.424 8.928V14.058H32.403C30.009 14.058 29.553 15.198 29.553 16.851V20.518H35.253L34.512 26.218H29.553V41H39.243C39.5175 41 39.7892 40.9459 40.0428 40.8409C40.2964 40.7359 40.5268 40.5819 40.7209 40.3879C40.9149 40.1938 41.0689 39.9634 41.1739 39.7098C41.2789 39.4562 41.333 39.1845 41.333 38.91V5.09C41.333 4.81554 41.2789 4.54376 41.1739 4.29019C41.0689 4.03662 40.9149 3.80622 40.7209 3.61215C40.5268 3.41807 40.2964 3.26412 40.0428 3.15909C39.7892 3.05406 39.5175 3 39.243 3Z" fill="white"/>
</svg>
