<svg width="20" height="25" viewBox="0 0 20 25" fill="none" xmlns="http://www.w3.org/2000/svg">
<path d="M19.7727 10.7143H11.8182C11.0949 10.7143 10.4012 10.4321 9.88971 9.92975C9.37825 9.42742 9.09091 8.74612 9.09091 8.03571V0.223214C9.09091 0.164014 9.06697 0.107239 9.02434 0.065378C8.98172 0.0235172 8.92391 0 8.86364 0H3.63636C2.67194 0 1.74702 0.376274 1.06507 1.04605C0.383116 1.71582 0 2.62423 0 3.57143V21.4286C0 22.3758 0.383116 23.2842 1.06507 23.954C1.74702 24.6237 2.67194 25 3.63636 25H16.3636C17.3281 25 18.253 24.6237 18.9349 23.954C19.6169 23.2842 20 22.3758 20 21.4286V10.9375C20 10.8783 19.9761 10.8215 19.9334 10.7797C19.8908 10.7378 19.833 10.7143 19.7727 10.7143Z" fill="black"/>
</svg>
