<svg width="30" height="30" viewBox="0 0 30 30" fill="none" xmlns="http://www.w3.org/2000/svg">
<path d="M15.6997 26.025C15.4957 26.1715 15.2509 26.2503 14.9997 26.2503C14.7486 26.2503 14.5037 26.1715 14.2997 26.025C8.26348 21.7225 1.85723 12.8725 8.33348 6.4775C10.1114 4.72856 12.5058 3.74891 14.9997 3.75C17.4997 3.75 19.8985 4.73125 21.666 6.47625C28.1422 12.8713 21.736 21.72 15.6997 26.025Z" stroke="#465EFF" stroke-width="1.875" stroke-linecap="round" stroke-linejoin="round"/>
<path d="M15 15C15.663 15 16.2989 14.7366 16.7678 14.2678C17.2366 13.7989 17.5 13.163 17.5 12.5C17.5 11.837 17.2366 11.2011 16.7678 10.7322C16.2989 10.2634 15.663 10 15 10C14.337 10 13.7011 10.2634 13.2322 10.7322C12.7634 11.2011 12.5 11.837 12.5 12.5C12.5 13.163 12.7634 13.7989 13.2322 14.2678C13.7011 14.7366 14.337 15 15 15Z" stroke="#465EFF" stroke-width="1.875" stroke-linecap="round" stroke-linejoin="round"/>
</svg>
